<?xml version="1.0" encoding="UTF-8"?>
<svg width="331px" height="45px" viewBox="0 0 331 45" version="1.1" xmlns="http://www.w3.org/2000/svg" xmlns:xlink="http://www.w3.org/1999/xlink">
    <!-- Generator: sketchtool 55.2 (78181) - https://sketchapp.com -->
    <title>DF3C2BB1-20B0-45C0-B98E-25D61531448D</title>
    <desc>Created with sketchtool.</desc>
    <defs>
        <polygon id="path-1" points="0.3957 0 21.9167 0 21.9167 16.3934 0.3957 16.3934"></polygon>
        <polygon id="path-3" points="0 45 330.87 45 330.87 0 0 0"></polygon>
    </defs>
    <g id="Asset-Artboard-Page" stroke="none" stroke-width="1" fill="none" fill-rule="evenodd">
        <g id="logo">
            <g id="Group-47">
                <g id="Group-3" transform="translate(23.000000, 0.000000)">
                    <mask id="mask-2" fill="white">
                        <use xlink:href="#path-1"></use>
                    </mask>
                    <g id="Clip-2"></g>
                    <path d="M13.3637,16.3934 C11.6377,8.9284 6.7587,2.8514 0.3957,0.0144 C0.5837,0.0094 0.7697,-0.0006 0.9587,-0.0006 C10.0877,-0.0006 18.1917,5.2804 21.9167,13.5304 L13.3637,16.3934 Z" id="Fill-1" fill="#D0BB8F" mask="url(#mask-2)"></path>
                </g>
                <path d="M9.5764,21.9857 C9.5764,15.4007 14.4694,9.9497 20.8074,9.0417 C18.7954,7.8017 16.4814,7.0937 14.0204,7.0937 C6.2894,7.0937 0.0004,14.0637 0.0004,22.6317 C0.0004,31.1977 6.2894,38.1687 14.0204,38.1687 C17.1674,38.1687 20.0754,37.0127 22.4184,35.0647 C15.3154,34.9297 9.5764,29.1197 9.5764,21.9857" id="Fill-4" fill="#D0BB8F"></path>
                <path d="M36.3637,28.6068 C34.6377,36.0718 29.7587,42.1488 23.3957,44.9858 C23.5837,44.9898 23.7697,44.9998 23.9587,44.9998 C33.0877,44.9998 41.1917,39.7188 44.9167,31.4698 L36.3637,28.6068 Z" id="Fill-6" fill="#D0BB8F"></path>
                <path d="M113.4204,37.7557 C113.6434,37.4547 113.9314,37.2107 114.2764,37.0297 C114.6214,36.8487 115.0434,36.7577 115.5304,36.7577 C115.7344,36.7577 115.9474,36.7967 116.1674,36.8737 C116.3954,36.9527 116.6064,37.0397 116.7934,37.1317 C116.9754,37.2217 117.1844,37.3457 117.4324,37.5117 L117.5344,37.5817 L118.2894,36.8897 L118.1384,36.7857 C117.8044,36.5557 117.5224,36.3787 117.2764,36.2437 C117.0274,36.1077 116.7464,35.9817 116.4394,35.8667 C116.1254,35.7507 115.8194,35.6927 115.5304,35.6927 C114.8634,35.6927 114.2684,35.8107 113.7634,36.0437 C113.2584,36.2767 112.8294,36.5997 112.4884,37.0007 C112.1504,37.4017 111.8914,37.8737 111.7184,38.4067 C111.5464,38.9357 111.4594,39.5027 111.4594,40.0907 C111.4594,40.6787 111.5464,41.2427 111.7184,41.7637 C111.8914,42.2887 112.1524,42.7557 112.4954,43.1517 C112.8414,43.5497 113.2714,43.8677 113.7764,44.0967 C114.2814,44.3257 114.8714,44.4427 115.5304,44.4427 C115.8234,44.4427 116.1204,44.4007 116.4154,44.3177 C116.7024,44.2367 116.9664,44.1507 117.1984,44.0577 C117.4334,43.9647 117.6894,43.8397 117.9794,43.6757 L118.1104,43.6017 L117.6074,42.7517 L117.4794,42.8107 C117.2164,42.9327 116.9974,43.0267 116.8074,43.0957 C116.6144,43.1687 116.3994,43.2347 116.1684,43.2917 C115.9444,43.3477 115.7254,43.3767 115.5184,43.3767 C115.0234,43.3767 114.5974,43.2837 114.2544,43.0987 C113.9084,42.9137 113.6214,42.6657 113.4024,42.3617 C113.1814,42.0547 113.0174,41.6967 112.9154,41.2987 C112.8134,40.8907 112.7604,40.4687 112.7604,40.0437 C112.7604,39.6157 112.8144,39.1977 112.9214,38.8017 C113.0284,38.4107 113.1964,38.0587 113.4204,37.7557" id="Fill-8" fill="#264B5B"></path>
                <polygon id="Fill-10" fill="#264B5B" points="126.5427 39.3387 122.7107 39.3387 122.7107 35.8217 121.4567 35.8217 121.4567 44.3117 122.7107 44.3117 122.7107 40.4397 126.5427 40.4397 126.5427 44.3117 127.7947 44.3117 127.7947 35.8217 126.5427 35.8217"></polygon>
                <polygon id="Fill-12" fill="#264B5B" points="132.4501 40.4398 135.7291 40.4398 135.7291 39.3748 132.4501 39.3748 132.4501 36.9118 136.2451 36.9118 136.2451 35.8218 131.1981 35.8218 131.1981 44.3118 136.3931 44.3118 136.3931 43.2228 132.4501 43.2228"></polygon>
                <polygon id="Fill-14" fill="#264B5B" points="144.6716 42.3934 140.7256 35.8224 139.2786 35.8224 139.2786 44.3114 140.4456 44.3114 140.4456 37.5734 144.5146 44.3114 145.8376 44.3114 145.8376 35.8224 144.6716 35.8224"></polygon>
                <path d="M155.551,40.2342 L157.685,42.7312 C157.46,42.9292 157.207,43.0942 156.93,43.2252 C156.404,43.4732 155.752,43.5182 155.231,43.3382 C155.022,43.2662 154.837,43.1602 154.681,43.0242 C154.525,42.8882 154.4,42.7212 154.306,42.5262 C154.214,42.3362 154.167,42.1182 154.167,41.8782 C154.167,41.6612 154.205,41.4662 154.282,41.2982 C154.361,41.1262 154.469,40.9712 154.602,40.8392 C154.741,40.7002 154.903,40.5772 155.082,40.4712 C155.232,40.3812 155.389,40.3022 155.551,40.2342 M156.248,36.6862 C156.577,36.6862 156.839,36.7682 157.031,36.9282 C157.219,37.0852 157.311,37.3182 157.311,37.6402 C157.311,37.8272 157.27,37.9912 157.188,38.1302 C157.104,38.2762 156.993,38.4092 156.858,38.5232 C156.72,38.6422 156.562,38.7462 156.391,38.8352 C156.247,38.9092 156.105,38.9792 155.97,39.0432 C155.896,38.9602 155.823,38.8722 155.749,38.7802 C155.648,38.6552 155.558,38.5262 155.478,38.3942 C155.399,38.2612 155.332,38.1252 155.281,37.9882 C155.234,37.8582 155.21,37.7252 155.21,37.5922 C155.21,37.4572 155.238,37.3332 155.293,37.2242 C155.348,37.1142 155.424,37.0192 155.519,36.9422 C155.615,36.8622 155.727,36.7992 155.853,36.7542 C155.98,36.7082 156.109,36.6862 156.248,36.6862 M159.975,43.5572 C159.804,43.4082 159.627,43.2492 159.443,43.0802 C159.303,42.9512 159.178,42.8352 159.069,42.7312 C159.398,42.3232 159.664,41.8722 159.861,41.3882 C160.073,40.8672 160.215,40.3252 160.282,39.7762 L160.3,39.6282 L159.195,39.5132 L159.178,39.6602 C159.13,40.0732 159.027,40.5052 158.873,40.9422 C158.738,41.3212 158.564,41.6692 158.349,41.9822 C158.04,41.6312 157.737,41.2682 157.445,40.9012 C157.154,40.5322 156.862,40.1602 156.574,39.7862 C156.775,39.7002 156.972,39.6032 157.162,39.4962 C157.411,39.3542 157.632,39.1862 157.817,38.9952 C158.004,38.8012 158.155,38.5802 158.268,38.3392 C158.382,38.0932 158.44,37.8062 158.44,37.4852 C158.44,37.1942 158.379,36.9312 158.258,36.7022 C158.138,36.4742 157.971,36.2832 157.764,36.1352 C157.562,35.9912 157.33,35.8802 157.072,35.8052 C156.551,35.6512 155.97,35.6562 155.453,35.8172 C155.18,35.9022 154.938,36.0282 154.73,36.1932 C154.524,36.3592 154.356,36.5632 154.232,36.7972 C154.107,37.0352 154.043,37.3112 154.043,37.6162 C154.043,37.8122 154.074,38.0062 154.137,38.1922 C154.194,38.3702 154.275,38.5482 154.377,38.7202 C154.474,38.8812 154.582,39.0412 154.699,39.1952 C154.77,39.2882 154.841,39.3772 154.912,39.4642 C154.677,39.5492 154.456,39.6512 154.253,39.7682 C153.989,39.9212 153.754,40.1032 153.556,40.3102 C153.356,40.5192 153.198,40.7632 153.084,41.0362 C152.971,41.3082 152.913,41.6192 152.913,41.9622 C152.913,42.3632 152.997,42.7242 153.164,43.0352 C153.328,43.3452 153.554,43.6092 153.832,43.8182 C154.107,44.0262 154.428,44.1842 154.785,44.2872 C155.392,44.4632 156.085,44.4782 156.633,44.3802 C156.868,44.3382 157.088,44.2732 157.287,44.1862 C157.487,44.1002 157.686,43.9892 157.878,43.8592 C158.029,43.7552 158.182,43.6352 158.335,43.5022 C158.447,43.6232 158.58,43.7502 158.732,43.8782 C158.928,44.0442 159.129,44.2042 159.329,44.3522 C159.524,44.4952 159.756,44.6612 160.027,44.8522 L160.157,44.9422 L160.687,44.1742 L160.588,44.0882 C160.351,43.8842 160.146,43.7062 159.975,43.5572" id="Fill-16" fill="#264B5B"></path>
                <path d="M169.0727,37.7557 C169.2957,37.4547 169.5837,37.2107 169.9287,37.0297 C170.2737,36.8487 170.6957,36.7577 171.1827,36.7577 C171.3867,36.7577 171.5997,36.7967 171.8197,36.8737 C172.0477,36.9527 172.2587,37.0397 172.4457,37.1317 C172.6277,37.2217 172.8367,37.3457 173.0847,37.5117 L173.1867,37.5817 L173.9417,36.8897 L173.7907,36.7857 C173.4567,36.5557 173.1747,36.3787 172.9287,36.2437 C172.6797,36.1077 172.3987,35.9817 172.0917,35.8667 C171.7777,35.7507 171.4717,35.6927 171.1827,35.6927 C170.5157,35.6927 169.9207,35.8107 169.4157,36.0437 C168.9107,36.2767 168.4817,36.5997 168.1407,37.0007 C167.8027,37.4017 167.5437,37.8737 167.3707,38.4067 C167.1987,38.9357 167.1117,39.5027 167.1117,40.0907 C167.1117,40.6787 167.1987,41.2427 167.3707,41.7637 C167.5437,42.2887 167.8047,42.7557 168.1477,43.1517 C168.4937,43.5497 168.9237,43.8677 169.4287,44.0967 C169.9337,44.3257 170.5237,44.4427 171.1827,44.4427 C171.4757,44.4427 171.7727,44.4007 172.0677,44.3177 C172.3547,44.2367 172.6187,44.1507 172.8507,44.0577 C173.0857,43.9647 173.3417,43.8397 173.6317,43.6757 L173.7627,43.6017 L173.2597,42.7517 L173.1317,42.8107 C172.8687,42.9327 172.6497,43.0267 172.4597,43.0957 C172.2667,43.1687 172.0517,43.2347 171.8207,43.2917 C171.5967,43.3477 171.3777,43.3767 171.1707,43.3767 C170.6757,43.3767 170.2497,43.2837 169.9057,43.0987 C169.5607,42.9137 169.2737,42.6657 169.0547,42.3617 C168.8337,42.0547 168.6697,41.6967 168.5677,41.2987 C168.4657,40.8907 168.4127,40.4687 168.4127,40.0437 C168.4127,39.6157 168.4667,39.1977 168.5737,38.8017 C168.6807,38.4107 168.8487,38.0587 169.0727,37.7557" id="Fill-18" fill="#264B5B"></path>
                <polygon id="Fill-20" fill="#264B5B" points="182.195 39.3387 178.363 39.3387 178.363 35.8217 177.109 35.8217 177.109 44.3117 178.363 44.3117 178.363 40.4397 182.195 40.4397 182.195 44.3117 183.447 44.3117 183.447 35.8217 182.195 35.8217"></polygon>
                <path d="M190.3696,43.3763 C189.9186,43.3763 189.5346,43.2773 189.2256,43.0813 C188.9096,42.8803 188.6486,42.6213 188.4496,42.3103 C188.2466,41.9963 188.0966,41.6363 188.0016,41.2413 C187.9056,40.8443 187.8576,40.4483 187.8576,40.0673 C187.8576,39.6853 187.9056,39.2903 188.0016,38.8933 C188.0966,38.4973 188.2466,38.1383 188.4496,37.8233 C188.6486,37.5133 188.9096,37.2533 189.2256,37.0533 C189.5346,36.8563 189.9186,36.7573 190.3696,36.7573 C190.8206,36.7573 191.2046,36.8563 191.5136,37.0533 C191.8276,37.2513 192.0886,37.5113 192.2896,37.8243 C192.4926,38.1413 192.6436,38.5003 192.7376,38.8933 C192.8336,39.2903 192.8816,39.6853 192.8816,40.0673 C192.8816,40.4483 192.8336,40.8443 192.7376,41.2413 C192.6436,41.6333 192.4926,41.9933 192.2896,42.3103 C192.0896,42.6213 191.8256,42.8803 191.5076,43.0803 C191.1946,43.2773 190.8126,43.3763 190.3696,43.3763 M193.2566,37.0493 C192.9506,36.6423 192.5526,36.3113 192.0756,36.0643 C191.5966,35.8173 191.0216,35.6923 190.3696,35.6923 C189.7146,35.6923 189.1416,35.8173 188.6636,36.0643 C188.1866,36.3103 187.7896,36.6413 187.4826,37.0493 C187.1766,37.4543 186.9476,37.9243 186.8016,38.4473 C186.6546,38.9633 186.5806,39.5083 186.5806,40.0673 C186.5806,40.6253 186.6546,41.1693 186.7996,41.6863 C186.9476,42.2093 187.1766,42.6803 187.4826,43.0843 C187.7896,43.4923 188.1866,43.8243 188.6636,44.0693 C189.1426,44.3163 189.7156,44.4423 190.3696,44.4423 C191.0206,44.4423 191.5956,44.3163 192.0766,44.0693 C192.5526,43.8223 192.9506,43.4913 193.2566,43.0843 C193.5616,42.6823 193.7906,42.2123 193.9376,41.6863 L193.9396,41.6863 C194.0846,41.1653 194.1586,40.6203 194.1586,40.0673 C194.1586,39.5133 194.0846,38.9683 193.9376,38.4473 C193.7906,37.9213 193.5616,37.4513 193.2566,37.0493" id="Fill-22" fill="#264B5B"></path>
                <path d="M202.4362,41.3221 C202.4362,41.9461 202.2702,42.4471 201.9462,42.8121 C201.6212,43.1761 201.1372,43.3531 200.4652,43.3531 C199.7722,43.3531 199.2732,43.1741 198.9822,42.8221 C198.6832,42.4601 198.5302,41.9471 198.5302,41.2991 L198.5302,35.8221 L197.2772,35.8221 L197.2772,41.3341 C197.2772,42.3071 197.5492,43.0771 198.0872,43.6211 C198.6282,44.1651 199.4232,44.4421 200.4522,44.4421 C201.4422,44.4421 202.2232,44.1641 202.7742,43.6151 C203.3252,43.0671 203.6032,42.3111 203.6032,41.3691 L203.6032,35.8221 L202.4362,35.8221 L202.4362,41.3221 Z" id="Fill-24" fill="#264B5B"></path>
                <polygon id="Fill-26" fill="#264B5B" points="213.7116 35.8221 212.4576 35.8221 212.4576 44.3121 217.3966 44.3121 217.3966 43.2221 213.7116 43.2221"></polygon>
                <path d="M225.2541,40.9969 L222.5101,40.9969 L223.8881,37.3299 L225.2541,40.9969 Z M224.6221,35.8219 L223.2041,35.8219 L219.9571,44.3119 L221.2571,44.3119 L222.0931,42.0269 L225.6231,42.0269 L226.5071,44.3119 L227.8031,44.3119 L224.6581,35.9199 L224.6221,35.8219 Z" id="Fill-28" fill="#264B5B"></path>
                <polygon id="Fill-30" fill="#264B5B" points="236.8398 42.4232 234.9238 35.8222 233.7458 35.8222 231.8618 42.3902 230.0798 35.9322 230.0478 35.8222 228.7598 35.8222 231.1218 44.2022 231.1528 44.3122 232.4308 44.3122 234.2938 37.8552 236.1588 44.2042 236.1898 44.3122 237.4548 44.3122 239.7458 36.0082 239.7968 35.8222 238.6188 35.8222"></polygon>
                <polygon id="Fill-32" fill="#264B5B" points="247.6484 44.3118 248.9004 44.3118 248.9004 40.4398 252.1584 40.4398 252.1414 39.3748 248.9004 39.3748 248.9004 36.9118 252.5854 36.9118 252.5854 35.8218 247.6484 35.8218"></polygon>
                <mask id="mask-4" fill="white">
                    <use xlink:href="#path-3"></use>
                </mask>
                <g id="Clip-35"></g>
                <polygon id="Fill-34" fill="#264B5B" mask="url(#mask-4)" points="256 44.312 257.265 44.312 257.265 35.822 256 35.822"></polygon>
                <path d="M262.0925,36.9115 L263.5595,36.9115 C263.7955,36.9115 264.0215,36.9305 264.2315,36.9685 C264.4335,37.0045 264.6125,37.0675 264.7625,37.1565 C264.9085,37.2425 265.0215,37.3595 265.1065,37.5145 L265.1065,37.5145 C265.1935,37.6695 265.2365,37.8705 265.2365,38.1135 C265.2365,38.3725 265.1885,38.5925 265.0945,38.7675 C264.9985,38.9435 264.8695,39.0895 264.7105,39.2015 C264.5455,39.3165 264.3515,39.4025 264.1355,39.4555 C263.9095,39.5125 263.6715,39.5405 263.4255,39.5405 L262.0925,39.5405 L262.0925,36.9115 Z M266.3855,43.0705 C266.2315,42.7185 266.0745,42.3705 265.9105,42.0295 C265.7435,41.6845 265.5595,41.3465 265.3625,41.0225 C265.2025,40.7585 265.0245,40.5025 264.8325,40.2585 C265.2965,40.1215 265.6785,39.8915 265.9715,39.5735 C266.3155,39.1985 266.4895,38.7155 266.4895,38.1375 C266.4895,37.7385 266.4145,37.3885 266.2645,37.0945 C266.1155,36.8035 265.9105,36.5585 265.6555,36.3685 C265.4015,36.1795 265.1055,36.0385 264.7735,35.9515 C264.4445,35.8655 264.0915,35.8225 263.7185,35.8225 L260.8395,35.8225 L260.8395,44.3115 L262.0925,44.3115 L262.0925,40.6055 L263.5735,40.6055 C263.6855,40.6825 263.8015,40.8005 263.9215,40.9535 C264.0595,41.1335 264.1975,41.3405 264.3285,41.5665 C264.4605,41.7925 264.5855,42.0305 264.7095,42.2955 C264.8325,42.5535 264.9455,42.8055 265.0515,43.0485 C265.1585,43.2935 265.2545,43.5175 265.3395,43.7225 C265.4275,43.9295 265.4985,44.0965 265.5565,44.2235 L265.5975,44.3115 L266.9405,44.3115 L266.8445,44.1035 C266.6885,43.7655 266.5365,43.4215 266.3855,43.0705 L266.3855,43.0705 Z" id="Fill-36" fill="#264B5B" mask="url(#mask-4)"></path>
                <polygon id="Fill-37" fill="#264B5B" mask="url(#mask-4)" points="276.881 35.8221 274.159 42.4601 271.415 35.8221 269.72 35.8221 269.72 44.3121 270.887 44.3121 270.887 37.5751 273.651 44.3121 274.585 44.3121 277.275 37.5931 277.275 44.3121 278.515 44.3121 278.515 35.8221"></polygon>
                <path d="M78.381,15.356 L80.446,15.356 L80.446,12.398 L78.381,12.398 L78.381,15.356 Z M78.381,11.671 L80.446,11.671 L80.446,8.955 L78.381,8.955 L78.381,11.671 Z M74.364,15.356 L76.317,15.356 L76.317,12.398 L74.364,12.398 L74.364,15.356 Z M74.364,11.671 L76.317,11.671 L76.317,8.955 L74.364,8.955 L74.364,11.671 Z M74.364,8.203 L76.317,8.203 L76.317,6.104 L74.364,6.104 L74.364,8.203 Z M73.75,2.581 C74.308,3.065 74.587,3.495 74.587,3.899 C74.587,4.598 74.197,4.949 73.471,4.949 C73.081,4.949 72.802,4.705 72.606,4.194 C72.216,3.227 71.602,2.34 70.765,1.478 L71.296,1.075 C72.355,1.667 73.165,2.15 73.75,2.581 L73.75,2.581 Z M81.311,1.99 C81.59,2.097 81.757,2.259 81.757,2.419 C81.757,2.689 81.339,2.877 80.557,2.958 C79.916,3.657 79.079,4.464 78.074,5.378 L81.115,5.378 L82.65,3.683 L84.686,5.137 C84.91,5.325 85.049,5.513 85.049,5.674 C85.049,5.971 84.882,6.104 84.603,6.104 L78.381,6.104 L78.381,8.202 L80.251,8.202 L81.45,7.046 L83.068,8.256 C83.347,8.445 83.515,8.605 83.515,8.74 C83.515,8.928 83.403,9.063 83.208,9.144 L82.538,9.467 L82.538,11.564 L83.626,10.408 L85.3,11.564 C85.467,11.725 85.579,11.86 85.579,11.994 C85.579,12.264 85.467,12.398 85.245,12.398 L82.538,12.398 L82.538,13.985 L82.65,16.298 C82.65,16.513 82.51,16.674 82.259,16.809 C82.036,16.97 81.785,17.023 81.45,17.023 C80.781,17.023 80.446,16.863 80.446,16.513 L80.446,16.082 L78.493,16.082 C79.079,16.835 79.693,17.508 80.334,18.045 C81.032,18.744 81.785,19.283 82.566,19.713 C83.431,20.224 84.463,20.654 85.691,21.031 L85.467,21.757 C85.105,21.757 84.798,21.785 84.547,21.838 C84.268,21.918 83.933,22.375 83.515,23.237 C82.79,22.805 82.008,22.161 81.199,21.327 C80.39,20.573 79.665,19.606 79.023,18.449 C78.8,18.153 78.576,17.804 78.381,17.427 L78.381,25.118 C78.381,25.388 78.27,25.576 78.074,25.71 C77.712,25.791 77.349,25.845 76.958,25.845 C76.485,25.845 76.233,25.71 76.205,25.441 L76.317,21.139 L76.317,16.082 L74.364,16.082 L74.364,25.118 C74.364,25.388 74.252,25.576 74.029,25.71 C73.667,25.791 73.304,25.845 72.941,25.845 C72.439,25.845 72.188,25.71 72.188,25.441 L72.3,21.139 L72.3,19.337 C71.602,20.305 70.849,21.139 70.04,21.811 C69.258,22.456 68.477,23.021 67.696,23.451 L67.39,22.913 C67.836,22.591 68.338,22.08 68.868,21.434 C69.566,20.573 70.151,19.66 70.654,18.663 C71.072,17.885 71.462,17.023 71.797,16.082 C70.821,16.11 69.844,16.189 68.896,16.298 L68.366,15.033 C69.538,15.248 70.737,15.356 71.965,15.356 L72.3,15.356 L72.3,12.398 L70.765,12.398 C69.733,12.398 68.701,12.478 67.696,12.612 L67.166,11.348 C68.338,11.564 69.538,11.671 70.765,11.671 L72.3,11.671 L72.3,8.955 L72.188,8.955 C71.156,8.955 70.123,9.035 69.119,9.144 L68.589,7.88 C69.761,8.094 70.961,8.202 72.188,8.202 L72.3,8.202 L72.3,6.104 L71.853,6.104 C70.821,6.104 69.817,6.185 68.812,6.319 L68.254,5.055 C69.426,5.271 70.626,5.378 71.853,5.378 L77.126,5.378 C77.516,4.517 77.823,3.818 78.046,3.334 C78.353,2.528 78.604,1.72 78.828,0.968 L81.311,1.99 Z M62.033,22.913 L64.879,22.913 L64.879,18.287 L62.033,18.287 L62.033,22.913 Z M62.033,17.562 L64.655,17.562 L65.855,16.405 L67.473,17.615 C67.752,17.804 67.92,17.964 67.92,18.073 C67.92,18.287 67.808,18.422 67.64,18.503 L66.943,18.826 L66.943,22.08 L67.055,24.393 C67.055,24.581 66.915,24.742 66.692,24.877 C66.468,25.037 66.19,25.118 65.855,25.118 C65.185,25.118 64.879,24.93 64.879,24.607 L64.879,23.639 L62.033,23.639 L62.033,24.688 C62.033,24.984 61.866,25.172 61.559,25.281 C61.224,25.441 60.889,25.549 60.526,25.549 C60.108,25.549 59.885,25.334 59.857,24.904 L59.968,22.403 L59.968,18.18 C59.968,17.32 59.885,16.782 59.745,16.513 L62.033,17.562 Z M63.232,13.473 L63.79,13.473 L65.213,11.994 L67.055,13.285 C67.278,13.446 67.39,13.608 67.39,13.769 C67.39,14.066 67.222,14.199 66.943,14.199 L63.232,14.199 C62.228,14.199 61.196,14.28 60.192,14.414 L59.633,13.151 C60.833,13.367 62.033,13.473 63.232,13.473 L63.232,13.473 Z M63.232,2.85 L63.79,2.85 L65.213,1.371 L67.055,2.661 C67.278,2.823 67.39,3.012 67.39,3.172 C67.39,3.442 67.222,3.576 66.943,3.576 L63.232,3.576 C62.228,3.576 61.196,3.657 60.192,3.792 L59.633,2.528 C60.833,2.742 62.033,2.85 63.232,2.85 L63.232,2.85 Z M63.121,9.574 L63.79,9.574 L65.213,8.094 L67.055,9.386 C67.278,9.546 67.39,9.736 67.39,9.896 C67.39,10.166 67.222,10.3 66.943,10.3 L63.121,10.3 C62.117,10.3 61.084,10.38 60.08,10.514 L59.522,9.251 C60.721,9.467 61.921,9.574 63.121,9.574 L63.121,9.574 Z M62.702,6.212 L64.432,6.212 L65.967,4.625 L67.92,5.996 C68.143,6.185 68.254,6.373 68.254,6.535 C68.254,6.803 68.087,6.938 67.808,6.938 L62.702,6.938 C61.671,6.938 60.638,7.018 59.633,7.153 L59.103,5.889 C60.275,6.104 61.475,6.212 62.702,6.212 L62.702,6.212 Z" id="Fill-38" fill="#264B5B" mask="url(#mask-4)"></path>
                <path d="M106.783,7.692 L111.47,7.692 L111.47,3.388 L106.783,3.388 L106.783,7.692 Z M111.666,13.823 C112.056,13.985 112.251,14.173 112.251,14.414 C112.251,14.657 111.833,14.872 111.051,15.033 C110.884,15.652 110.689,16.189 110.521,16.674 C110.968,17.373 111.442,17.992 111.889,18.475 C112.446,19.148 113.061,19.713 113.674,20.143 C114.344,20.654 115.18,21.084 116.157,21.434 L116.045,22.08 C115.683,22.08 115.375,22.106 115.153,22.134 C114.874,22.241 114.511,22.672 114.092,23.451 C113.535,23.021 112.949,22.403 112.335,21.595 C111.721,20.842 111.163,19.901 110.661,18.772 C110.466,18.475 110.298,18.126 110.131,17.696 C109.991,18.045 109.852,18.342 109.713,18.61 C109.322,19.471 108.792,20.251 108.15,21.004 C107.675,21.595 107.174,22.106 106.644,22.537 C106.225,22.913 105.807,23.237 105.36,23.559 L104.942,23.128 C105.36,22.672 105.723,22.214 106.03,21.73 C106.477,21.084 106.867,20.439 107.202,19.766 C107.592,18.986 107.899,18.153 108.15,17.265 C108.429,16.189 108.708,14.819 108.959,13.151 L111.666,13.823 Z M100.479,7.692 L104.719,7.692 L104.719,3.388 L100.479,3.388 L100.479,7.692 Z M94.256,7.692 L98.385,7.692 L98.385,3.388 L94.256,3.388 L94.256,7.692 Z M103.854,11.941 L103.854,24.796 C103.854,25.065 103.742,25.281 103.547,25.388 C103.156,25.495 102.794,25.549 102.431,25.549 C101.873,25.549 101.566,25.388 101.566,25.118 L101.678,20.6 L101.678,12.075 C99.335,12.236 96.265,12.345 92.415,12.398 L92.193,11.671 C96.154,11.457 99.195,11.188 101.371,10.865 C103.352,10.623 104.97,10.326 106.253,9.977 C107.508,9.708 108.597,9.358 109.517,8.955 L111.526,10.326 C111.693,10.542 111.805,10.757 111.805,10.946 C111.805,11.16 111.638,11.242 111.359,11.242 L110.494,11.16 C108.541,11.511 106.309,11.779 103.854,11.941 L103.854,11.941 Z M94.257,2.635 L111.247,2.635 L112.446,1.478 L114.065,2.689 C114.372,2.877 114.539,3.039 114.539,3.172 C114.539,3.361 114.427,3.495 114.232,3.576 L113.535,3.899 L113.535,6.427 L113.646,8.74 C113.646,8.955 113.507,9.116 113.284,9.224 C113.061,9.386 112.781,9.467 112.446,9.467 C111.777,9.467 111.47,9.305 111.47,8.955 L111.47,8.417 L94.257,8.417 L94.257,8.955 C94.257,9.251 94.089,9.439 93.783,9.546 C93.448,9.708 93.113,9.789 92.723,9.789 C92.304,9.789 92.081,9.574 92.081,9.144 L92.193,6.642 L92.193,3.281 C92.193,2.419 92.109,1.855 91.969,1.586 L94.257,2.635 Z M98.302,14.199 C98.637,14.334 98.832,14.495 98.832,14.71 C98.832,14.979 98.47,15.195 97.744,15.356 C97.437,16.11 97.13,16.782 96.852,17.346 C98.051,18.18 99.027,18.933 99.781,19.578 C100.59,20.359 101.008,21.111 101.008,21.864 C101.008,22.725 100.645,23.128 99.92,23.128 C99.585,23.128 99.306,22.86 99.055,22.268 C98.33,20.896 97.437,19.525 96.377,18.18 C96.265,18.342 96.182,18.503 96.098,18.61 C95.624,19.39 94.982,20.117 94.201,20.816 C93.615,21.353 93.001,21.811 92.36,22.214 C91.83,22.537 91.3,22.86 90.77,23.128 L90.323,22.698 C90.909,22.268 91.411,21.838 91.83,21.407 C92.415,20.842 92.946,20.251 93.392,19.632 C93.922,18.933 94.341,18.153 94.675,17.346 C95.066,16.351 95.429,15.088 95.791,13.555 L98.302,14.199 Z" id="Fill-39" fill="#264B5B" mask="url(#mask-4)"></path>
                <path d="M139.0349,4.9207 C139.4259,5.2967 139.6489,5.6737 139.6489,6.1037 C139.6489,6.5887 139.3419,6.8307 138.7839,6.8307 C138.5329,6.8307 138.3369,6.6957 138.1979,6.3997 C137.8069,5.7547 137.3339,5.0827 136.7189,4.4377 L137.0539,4.0057 C137.8349,4.1937 138.5049,4.4907 139.0349,4.9207 L139.0349,4.9207 Z M127.5689,15.1417 L130.9449,15.1417 L130.9449,11.5647 L127.5689,11.5647 L127.5689,15.1417 Z M127.3459,10.8377 L130.8329,10.8377 L131.8099,9.8967 L133.0929,10.9457 C133.3159,11.1067 133.4559,11.2417 133.4559,11.3487 C133.4559,11.5107 133.3709,11.5897 133.2039,11.6457 L132.6749,11.8867 L132.6749,14.0917 L132.7859,15.9747 C132.7859,16.1637 132.6749,16.2977 132.5069,16.4047 C132.3109,16.5657 132.0879,16.6207 131.8099,16.6207 C131.2229,16.6207 130.9449,16.4857 130.9449,16.1897 L130.9449,15.8667 L127.5689,15.8667 L127.5689,16.4047 C127.5689,16.6737 127.4289,16.8347 127.2059,16.9167 C126.9269,17.0767 126.6479,17.1307 126.3689,17.1307 C126.0059,17.1307 125.8109,16.9697 125.8109,16.6207 L125.8109,11.4567 C125.8109,10.7027 125.7559,10.2187 125.6999,10.0037 L127.3459,10.8377 Z M133.8739,17.8847 C131.8099,18.9067 129.4379,19.8737 126.7879,20.8167 L126.5919,21.6497 C126.5359,21.8637 126.4249,21.9727 126.2579,21.9727 C126.0339,21.9727 125.8949,21.8377 125.8109,21.5417 L124.8349,19.2297 C127.9039,18.7447 130.8609,18.0987 133.7629,17.3457 L133.8739,17.8847 Z M128.0989,7.4757 L133.7059,7.4757 C133.6789,7.0187 133.6789,6.5617 133.6789,6.1037 C133.6789,5.5397 133.5949,4.8137 133.4559,3.8987 L135.6589,4.1407 C136.1339,4.1937 136.3849,4.3027 136.3849,4.5177 C136.3849,4.7327 136.0779,5.0017 135.5199,5.2717 C135.5199,6.0777 135.5199,6.8027 135.5479,7.4757 L139.1189,7.4757 L140.5419,5.9967 L142.3829,7.2877 C142.6059,7.4487 142.7179,7.6367 142.7179,7.7987 C142.7179,8.0677 142.5499,8.2027 142.2709,8.2027 L135.5759,8.2027 C135.6039,9.4397 135.6869,10.5147 135.7989,11.4567 C135.9389,12.6927 136.2169,13.9307 136.6359,15.1417 C136.6359,15.1947 136.6639,15.2487 136.6639,15.2487 C137.5009,13.7957 138.2819,12.1557 139.0069,10.2997 L141.1829,10.7837 C141.5459,10.8647 141.7409,11.0257 141.7409,11.2417 C141.7409,11.4827 141.4059,11.6707 140.7369,11.7787 C139.8159,13.7147 138.7279,15.4897 137.4449,17.1047 C137.5839,17.3997 137.7519,17.6687 137.9189,17.9107 C138.3649,18.6097 138.9229,19.2017 139.5649,19.7407 C139.7329,19.9007 139.8719,19.9827 139.9829,19.9827 C140.1229,19.9827 140.2349,19.8737 140.3179,19.6317 L141.7409,16.5127 L142.1599,16.6207 C141.7969,18.7717 141.6299,19.9827 141.6299,20.1967 C141.6299,20.5467 141.7689,20.8417 142.0479,21.1107 C142.2709,21.3807 142.3829,21.6757 142.3829,21.9727 C142.3829,22.4027 142.0479,22.5907 141.4059,22.5907 C140.8759,22.5907 140.2629,22.3757 139.5649,21.9447 C138.6449,21.3537 137.8069,20.6007 137.0539,19.6317 C136.7469,19.2557 136.4959,18.8787 136.2739,18.5027 C134.8229,19.9547 133.0649,21.3267 130.9449,22.5907 L130.4979,22.0797 C132.2559,20.8417 133.8459,19.2827 135.2969,17.3737 C135.3519,17.2647 135.4359,17.1857 135.4919,17.0767 C135.3249,16.7537 135.1569,16.4047 135.0459,16.0287 C134.5989,14.9257 134.2359,13.5547 134.0129,11.8867 C133.8459,10.8377 133.7629,9.6007 133.7059,8.2027 L128.0989,8.2027 C127.0939,8.2027 126.0619,8.2827 125.0579,8.4167 L124.4999,7.1527 C125.6999,7.3687 126.8989,7.4757 128.0989,7.4757 L128.0989,7.4757 Z M124.1929,23.4507 L143.0239,23.4507 L143.0239,3.3877 L124.1929,3.3877 L124.1929,23.4507 Z M124.1929,2.6347 L143.0239,2.6347 L144.1409,1.3717 L145.9539,2.7157 C146.1769,2.8767 146.3169,3.0657 146.3169,3.2807 C146.3169,3.3877 146.1769,3.4947 145.9539,3.6297 L145.2289,4.0057 L145.2289,24.6077 C145.2289,24.9307 145.0609,25.1717 144.7259,25.3347 C144.4749,25.4687 144.1959,25.5487 143.9169,25.5487 C143.3039,25.5487 143.0239,25.3597 143.0239,25.0107 L143.0239,24.1777 L124.1929,24.1777 L124.1929,24.9037 C124.1929,25.1187 123.9979,25.3067 123.6629,25.4157 C123.3559,25.4947 123.0209,25.5487 122.6589,25.5487 C122.2119,25.5487 122.0169,25.3347 122.0169,24.9037 L122.1009,20.7077 L122.1009,3.2807 C122.1009,2.6077 122.0169,2.0437 121.9049,1.5857 L124.1929,2.6347 Z" id="Fill-40" fill="#264B5B" mask="url(#mask-4)"></path>
                <path d="M175.666,21.2996 C176.615,21.8636 177.117,22.4026 177.117,22.9136 C177.117,23.7476 176.698,24.1776 175.917,24.1776 C175.527,24.1776 175.192,23.9616 174.885,23.5316 C173.937,22.3216 172.625,21.1116 171.007,19.8736 L171.537,19.4436 C173.267,20.1426 174.662,20.7626 175.666,21.2996 L175.666,21.2996 Z M166.85,13.1506 L169.361,13.1506 L170.896,11.5646 L172.849,12.9356 C173.072,13.1236 173.184,13.3116 173.184,13.4736 C173.184,13.7426 173.016,13.8776 172.737,13.8776 L166.85,13.8776 C165.846,13.8776 164.814,13.9576 163.81,14.0916 L163.251,12.8276 C164.451,13.0436 165.65,13.1506 166.85,13.1506 L166.85,13.1506 Z M163.81,16.9166 L172.96,16.9166 L174.606,15.1416 L176.755,16.6746 C176.978,16.8626 177.117,17.0506 177.117,17.2386 C177.117,17.5346 176.95,17.6686 176.671,17.6686 L169.361,17.6686 L169.361,23.0206 C169.361,23.9086 168.915,24.6346 168.078,25.2266 C167.353,25.6296 166.683,25.8446 166.097,25.8446 C166.097,25.1186 166.013,24.6346 165.902,24.4196 C165.735,24.1506 165.037,23.8826 163.81,23.5596 L163.81,22.9136 L166.543,23.2366 C166.962,23.2366 167.185,23.0206 167.185,22.5916 L167.185,17.6686 L163.81,17.6686 C162.777,17.6686 161.773,17.7496 160.769,17.8846 L160.21,16.6206 C161.41,16.8346 162.61,16.9166 163.81,16.9166 L163.81,16.9166 Z M165.065,1.8006 C165.511,1.9086 165.762,2.0706 165.762,2.3126 C165.762,2.5276 165.595,2.6616 165.288,2.6886 L164.367,2.9576 C164.228,3.2266 164.089,3.4686 163.977,3.6836 L166.097,3.6836 L167.408,2.5276 L169.083,3.6296 C168.943,3.1456 168.831,2.6616 168.719,2.1236 L169.249,2.0166 C169.919,3.7376 170.589,5.1366 171.314,6.2376 C171.649,6.8306 172.039,7.3416 172.458,7.7986 C173.016,6.5346 173.462,5.3506 173.769,4.2216 C172.82,4.2486 171.844,4.3286 170.896,4.4376 L170.338,3.1726 C171.454,3.3606 172.542,3.4686 173.63,3.4686 L175.025,2.2316 L176.95,3.6036 C177.173,3.7106 177.312,3.9256 177.312,4.2216 C177.312,4.4096 177.117,4.5446 176.782,4.6516 L176.001,4.8396 C175.248,5.9966 174.299,7.2066 173.127,8.4976 C173.49,8.9016 173.853,9.2506 174.243,9.5466 C175.332,10.4616 176.503,11.1876 177.759,11.6716 L177.536,12.3976 C177.117,12.3976 176.782,12.4516 176.531,12.5326 C176.196,12.5866 175.75,12.9626 175.248,13.6616 C174.187,12.9626 173.267,12.0746 172.542,11.0526 C171.593,9.8686 170.784,8.5256 170.17,7.0716 C169.891,6.4006 169.613,5.6196 169.361,4.7326 C169.306,4.7596 169.278,4.7596 169.278,4.7596 L168.496,4.9486 C167.91,6.2936 167.297,7.3946 166.683,8.2566 C165.958,9.3586 165.009,10.4886 163.837,11.6716 C162.777,12.7466 161.494,13.7966 159.988,14.8186 L159.569,14.1986 C160.852,13.0696 161.912,11.9676 162.777,10.9186 C163.67,9.8426 164.423,8.6866 165.037,7.4756 C165.511,6.6426 165.93,5.6196 166.265,4.4376 L163.53,4.4376 C163.335,4.7596 163.14,5.0556 162.972,5.3246 C163.419,5.4856 163.81,5.7006 164.144,5.9156 C164.562,6.2656 164.786,6.6426 164.786,7.0466 C164.786,7.4756 164.535,7.6916 164.032,7.6916 C163.754,7.6916 163.53,7.5566 163.363,7.2606 C163.084,6.8836 162.777,6.4816 162.442,6.0776 C162.219,6.4006 162.024,6.6696 161.829,6.9116 C161.661,7.1256 161.522,7.3136 161.382,7.5036 C161.884,7.7176 162.303,7.9596 162.637,8.2286 C163.029,8.6056 163.251,9.0086 163.251,9.4666 C163.251,9.8966 163,10.1116 162.499,10.1116 C162.219,10.1116 162.024,9.9496 161.856,9.6276 C161.577,9.1436 161.215,8.6326 160.824,8.1476 C160.239,8.8206 159.569,9.5466 158.788,10.2996 L158.37,9.7896 C159.374,8.3356 160.183,6.9116 160.852,5.5396 C161.522,4.1686 162.079,2.7416 162.499,1.2626 L165.065,1.8006 Z M164.702,19.6596 C165.12,19.8736 165.344,20.1166 165.344,20.3846 C165.344,20.6006 164.925,20.7626 164.144,20.8166 C163.084,21.7846 161.94,22.6166 160.713,23.2896 C159.931,23.6666 159.039,24.0706 158.035,24.5006 L157.7,23.9616 C158.927,23.1556 159.931,22.3216 160.713,21.5146 C161.494,20.7356 162.219,19.8476 162.833,18.8256 L164.702,19.6596 Z M154.435,25.2266 C154.435,25.4416 154.24,25.6296 153.906,25.7376 C153.599,25.7916 153.264,25.8446 152.901,25.8446 C152.455,25.8446 152.259,25.6296 152.259,25.2266 L152.371,21.0306 L152.371,3.1726 C152.371,2.5006 152.287,1.9356 152.148,1.4786 L154.435,2.5276 L157.142,2.5276 L158.258,1.3716 L160.155,2.7416 C160.406,2.9036 160.545,3.0926 160.545,3.2806 C160.545,3.4686 160.406,3.6036 160.183,3.6566 L159.346,3.8986 C158.509,5.5666 157.421,7.5566 156.082,9.8966 C157.142,10.5956 158.006,11.5106 158.676,12.6936 C159.262,13.8226 159.569,14.8996 159.569,15.8666 C159.569,17.1856 159.178,18.2336 158.397,19.0136 C157.783,19.6056 157.114,19.8736 156.388,19.8736 C156.333,18.9606 156.137,18.4756 155.858,18.3956 L154.659,17.9646 L154.77,17.2386 L156.277,17.4536 C156.612,17.4536 156.891,17.2926 157.114,16.9166 C157.337,16.5126 157.477,15.8936 157.477,15.0326 C157.477,14.1726 157.281,13.3116 156.891,12.3976 C156.556,11.5646 155.97,10.7566 155.189,10.0036 C156.026,7.5296 156.667,5.2976 157.114,3.2806 L154.435,3.2806 L154.435,25.2266 Z" id="Fill-41" fill="#264B5B" mask="url(#mask-4)"></path>
                <path d="M194.2758,6.6424 L197.0098,6.6424 L197.0098,2.9574 C197.0098,2.6884 196.9538,2.1234 196.8978,1.2634 L199.6878,1.6134 C200.2178,1.6664 200.4968,1.8544 200.4968,2.1234 C200.4968,2.5004 200.0778,2.7954 199.2968,3.0654 L199.2968,6.6424 L202.2268,6.6424 L203.8728,4.8394 L206.0208,6.3724 C206.2438,6.5884 206.3838,6.7764 206.3838,6.9374 C206.3838,7.2344 206.2168,7.3694 205.9368,7.3694 L199.2968,7.3694 L199.2968,13.3664 L203.9838,13.3664 L205.7138,11.4564 L207.9738,13.0694 C208.1968,13.2854 208.3358,13.4734 208.3358,13.6624 C208.3358,13.9574 208.1408,14.0914 207.8068,14.0914 L198.6278,14.0914 C197.7348,15.8664 196.8698,17.3464 196.0338,18.5834 C195.3638,19.7404 194.5818,20.8424 193.7178,21.8914 C193.9128,21.8914 194.1088,21.8914 194.2758,21.8644 C196.1728,21.7844 198.0698,21.6764 199.9388,21.5154 C201.4458,21.4344 202.7568,21.3274 203.8728,21.2184 C203.0638,19.9554 202.1428,18.6904 201.1388,17.4534 L201.6968,17.0234 C203.5938,18.3954 205.0998,19.6324 206.2168,20.7624 C207.2768,21.8644 207.8068,22.9394 207.8068,23.9614 C207.8068,24.7954 207.3878,25.2264 206.6068,25.2264 C206.1878,25.2264 205.8258,24.8234 205.4908,24.0704 C205.1288,23.3434 204.7368,22.6444 204.3188,21.9454 C203.3148,22.2144 202.2268,22.4294 201.0548,22.6444 C199.4928,22.9674 197.4278,23.2894 194.9168,23.6664 C193.4108,23.8824 192.0438,24.0424 190.7878,24.1774 L190.4808,24.9044 C190.3418,25.2534 190.1468,25.4414 189.9228,25.4414 C189.7278,25.3874 189.5888,25.2264 189.5048,24.9304 L188.7238,22.0804 C189.8398,22.0804 191.1228,22.0264 192.6298,21.9454 C193.4388,20.4654 194.1088,19.0414 194.6108,17.6964 C195.1688,16.3514 195.6148,15.1674 195.9218,14.0914 L192.3228,14.0914 C191.2908,14.0914 190.2578,14.1724 189.2538,14.3074 L188.7238,13.0434 C189.8958,13.2584 191.0958,13.3664 192.3228,13.3664 L197.0098,13.3664 L197.0098,7.3694 L194.2758,7.3694 C193.2438,7.3694 192.2388,7.4484 191.2348,7.5834 L190.6768,6.3194 C191.8758,6.5354 193.0758,6.6424 194.2758,6.6424 L194.2758,6.6424 Z M187.7198,3.0114 C188.4448,3.4694 188.8358,3.8984 188.8358,4.3294 C188.8358,5.1094 188.4168,5.4854 187.6358,5.4854 C187.1058,5.4854 186.6868,5.2164 186.4088,4.6794 C185.8508,3.7104 184.9858,2.7694 183.8138,1.9084 L184.3718,1.4784 C185.7948,2.0704 186.9098,2.5814 187.7198,3.0114 L187.7198,3.0114 Z M190.2578,6.9374 L186.6318,18.2614 C186.4918,18.7444 186.4358,19.1744 186.4358,19.5524 C186.4358,20.0894 186.5478,20.7354 186.7988,21.4874 C187.1338,22.4564 187.3008,23.1014 187.3008,23.4514 C187.3008,24.0424 187.1338,24.5264 186.8268,24.9044 C186.4918,25.2534 186.1848,25.4414 185.8788,25.4414 C185.4878,25.4414 185.2088,25.2804 184.9858,25.0114 C184.7068,24.6884 184.5958,24.2044 184.5958,23.5594 C184.5958,23.3434 184.5958,23.0484 184.6228,22.5634 C184.6508,22.1064 184.6788,21.7294 184.6788,21.4344 C184.6788,20.8164 184.5108,20.3054 184.1768,19.9284 C183.8418,19.5784 183.1998,19.3094 182.1958,19.1214 L182.1958,18.3954 C182.9208,18.6104 183.4508,18.7184 183.8138,18.7184 C184.1488,18.7184 184.4278,18.4214 184.7068,17.7764 L189.5888,6.7494 L190.2578,6.9374 Z M185.6548,9.5734 C186.3808,10.0574 186.7708,10.5144 186.7708,10.9464 C186.7708,11.7254 186.3518,12.1014 185.5708,12.1014 C185.0408,12.1014 184.6228,11.8334 184.3438,11.2674 C183.7858,10.2724 182.9208,9.3314 181.7498,8.4164 L182.2798,7.9874 C183.7308,8.6324 184.8458,9.1434 185.6548,9.5734 L185.6548,9.5734 Z" id="Fill-42" fill="#264B5B" mask="url(#mask-4)"></path>
                <path d="M229.429,11.887 L233.474,11.887 L233.474,8.847 L229.429,8.847 L229.429,11.887 Z M229.429,8.094 L233.474,8.094 L233.474,4.84 L229.429,4.84 L229.429,8.094 Z M225.635,4.115 L227.253,4.115 C227.225,2.77 227.141,1.774 227.029,1.075 L229.82,1.425 C230.266,1.478 230.517,1.64 230.517,1.909 C230.517,2.231 230.35,2.419 230.042,2.5 L229.429,2.742 L229.429,4.115 L233.251,4.115 L234.451,2.958 L236.069,4.168 C236.348,4.356 236.515,4.517 236.515,4.625 C236.515,4.84 236.404,4.974 236.208,5.055 L235.539,5.378 L235.539,7.852 L236.627,6.749 L238.412,7.96 C238.58,8.121 238.691,8.283 238.691,8.417 C238.691,8.714 238.58,8.847 238.384,8.847 L235.539,8.847 L235.539,10.514 L235.65,12.828 C235.65,13.043 235.511,13.204 235.288,13.339 C235.064,13.5 234.786,13.555 234.451,13.555 C233.781,13.555 233.474,13.392 233.474,13.043 L233.474,12.612 L229.429,12.612 L229.429,15.679 L233.697,15.679 L235.204,13.985 L237.269,15.437 C237.492,15.625 237.603,15.813 237.603,15.975 C237.603,16.27 237.464,16.405 237.185,16.405 L229.429,16.405 L229.429,19.874 L234.562,19.874 L236.208,18.073 L238.356,19.606 C238.58,19.82 238.691,20.009 238.691,20.197 C238.691,20.466 238.552,20.6 238.272,20.6 L229.429,20.6 L229.429,25.227 C229.429,25.415 229.345,25.549 229.178,25.63 C228.899,25.764 228.508,25.845 228.034,25.845 C227.476,25.845 227.169,25.71 227.141,25.441 L227.253,20.923 L227.253,20.6 L222.901,20.6 C221.868,20.6 220.864,20.681 219.86,20.816 L219.302,19.552 C220.474,19.766 221.673,19.874 222.901,19.874 L227.253,19.874 L227.253,16.405 L224.435,16.405 C223.403,16.405 222.371,16.486 221.366,16.621 L220.836,15.356 C222.008,15.571 223.208,15.679 224.435,15.679 L227.253,15.679 L227.253,12.612 L225.523,12.612 C224.491,12.612 223.458,12.693 222.455,12.828 L221.925,11.564 C223.096,11.779 224.296,11.887 225.523,11.887 L227.253,11.887 L227.253,8.847 L224.435,8.847 C223.403,8.847 222.371,8.928 221.366,9.035 L220.836,7.799 C222.008,8.014 223.208,8.094 224.435,8.094 L227.253,8.094 L227.253,4.84 L225.635,4.84 C224.602,4.84 223.57,4.921 222.566,5.055 L222.036,3.792 C223.208,4.006 224.407,4.115 225.635,4.115 L225.635,4.115 Z M220.892,6.589 C221.199,6.696 221.366,6.884 221.366,7.153 C221.366,7.395 221.004,7.583 220.279,7.692 C219.246,9.52 218.242,10.999 217.293,12.156 L218.269,12.505 C218.604,12.64 218.772,12.774 218.772,12.935 C218.772,13.123 218.604,13.258 218.326,13.339 L217.879,13.555 L217.879,25.011 C217.879,25.388 217.684,25.63 217.321,25.791 C217.014,25.899 216.707,25.952 216.373,25.952 C215.87,25.952 215.619,25.71 215.591,25.227 C215.591,24.688 215.619,23.747 215.703,22.403 L215.703,13.877 C215.033,14.522 214.225,15.221 213.303,15.975 L212.773,15.679 C214.168,14.038 215.256,12.533 215.982,11.188 C216.874,9.655 217.684,7.852 218.437,5.782 L220.892,6.589 Z M219.469,1.962 C219.776,2.071 219.944,2.259 219.944,2.528 C219.944,2.77 219.581,2.958 218.856,3.065 C217.907,4.356 216.958,5.378 216.066,6.185 C215.396,6.777 214.392,7.503 213.08,8.31 L212.55,7.987 C213.666,6.858 214.503,5.836 215.089,4.893 C215.758,3.846 216.401,2.608 217.014,1.156 L219.469,1.962 Z" id="Fill-43" fill="#264B5B" mask="url(#mask-4)"></path>
                <path d="M257.524,20.197 L264.053,20.197 L264.053,17.454 L257.524,17.454 L257.524,20.197 Z M257.524,16.728 L264.053,16.728 L264.053,14.199 L257.524,14.199 L257.524,16.728 Z M257.524,10.408 L263.299,10.408 L263.299,7.369 L257.524,7.369 L257.524,10.408 Z M249.545,10.408 L255.32,10.408 L255.32,7.369 L249.545,7.369 L249.545,10.408 Z M247.146,3.683 L255.32,3.683 C255.292,2.447 255.236,1.506 255.125,0.86 L257.886,1.209 C258.361,1.263 258.612,1.425 258.612,1.694 C258.612,2.017 258.444,2.231 258.138,2.285 L257.524,2.528 L257.524,3.683 L265.028,3.683 L266.674,1.909 L268.823,3.415 C269.046,3.63 269.185,3.818 269.185,4.006 C269.185,4.303 269.018,4.437 268.739,4.437 L257.524,4.437 L257.524,6.642 L263.075,6.642 L264.275,5.486 L265.893,6.696 C266.173,6.858 266.34,7.018 266.34,7.153 C266.34,7.342 266.228,7.476 266.033,7.557 L265.363,7.88 L265.363,8.955 L265.475,11.242 C265.475,11.457 265.335,11.645 265.112,11.752 C264.889,11.913 264.61,11.994 264.275,11.994 C263.605,11.994 263.299,11.833 263.299,11.457 L263.299,11.16 L257.524,11.16 L257.524,13.473 L263.801,13.473 L265.14,12.21 L266.758,13.473 C267.037,13.688 267.204,13.85 267.204,13.985 C267.204,14.173 267.093,14.307 266.898,14.389 L266.228,14.71 L266.228,16.728 L267.651,15.248 L269.52,16.54 C269.715,16.701 269.827,16.863 269.827,17.023 C269.827,17.32 269.659,17.453 269.381,17.453 L266.228,17.453 L266.228,19.337 L266.34,21.65 C266.34,21.891 266.2,22.08 265.977,22.214 C265.754,22.403 265.475,22.484 265.14,22.484 C264.415,22.484 264.052,22.322 264.052,21.972 L264.052,20.923 L257.524,20.923 L257.524,23.128 C257.524,24.015 257.078,24.742 256.185,25.307 C255.403,25.738 254.734,25.952 254.12,25.952 C254.12,25.227 254.037,24.742 253.869,24.527 C253.646,24.259 252.725,23.962 251.079,23.639 L251.079,23.021 L254.567,23.344 C255.069,23.344 255.32,23.128 255.32,22.698 L255.32,20.923 L249.126,20.923 C248.094,20.923 247.062,21.004 246.058,21.139 L245.528,19.874 C246.7,20.089 247.899,20.197 249.126,20.197 L255.32,20.197 L255.32,17.453 L246.727,17.453 C245.695,17.453 244.663,17.535 243.659,17.669 L243.129,16.405 C244.3,16.621 245.5,16.728 246.727,16.728 L255.32,16.728 L255.32,14.199 L249.656,14.199 C248.652,14.199 247.62,14.28 246.615,14.414 L246.058,13.151 C247.258,13.367 248.456,13.473 249.656,13.473 L255.32,13.473 L255.32,11.16 L249.545,11.16 L249.545,11.457 C249.545,11.752 249.378,11.941 249.071,12.048 C248.736,12.236 248.401,12.317 248.038,12.317 C247.62,12.317 247.397,12.101 247.369,11.671 L247.48,9.144 L247.48,7.261 C247.48,6.4 247.397,5.862 247.258,5.593 L249.545,6.642 L255.32,6.642 L255.32,4.437 L247.146,4.437 C246.141,4.437 245.109,4.517 244.105,4.625 L243.575,3.388 C244.747,3.603 245.946,3.683 247.146,3.683 L247.146,3.683 Z" id="Fill-44" fill="#264B5B" mask="url(#mask-4)"></path>
                <path d="M290.0258,6.723 C290.6958,7.557 291.5048,8.336 292.4808,9.036 C292.7038,8.74 292.8998,8.445 293.0668,8.175 C293.6808,7.342 294.1548,6.347 294.4898,5.163 L289.4958,5.163 C289.4118,5.271 289.3568,5.351 289.3008,5.405 C289.5238,5.915 289.7468,6.347 290.0258,6.723 L290.0258,6.723 Z M291.6998,1.909 C292.0348,2.043 292.2308,2.259 292.2308,2.528 C292.2308,2.77 291.8108,2.958 291.0308,3.065 C290.6958,3.576 290.3888,4.034 290.0818,4.437 L296.2748,4.437 L297.7818,2.742 L299.8458,4.194 C300.0698,4.383 300.1808,4.572 300.1808,4.733 C300.1808,5.028 300.0408,5.163 299.7628,5.163 L297.0848,5.163 C296.5548,6.561 295.9398,7.718 295.2438,8.659 C294.9088,9.144 294.5178,9.601 294.1268,10.004 C294.7128,10.3 295.3548,10.568 296.0798,10.811 C297.1398,11.188 298.6188,11.564 300.5158,11.887 L300.4048,12.505 C299.8748,12.505 299.4558,12.612 299.1488,12.801 C298.7578,12.935 298.3958,13.367 298.1168,14.092 C296.5818,13.608 295.3818,13.123 294.4898,12.64 C293.7648,12.264 293.0948,11.833 292.5368,11.376 C292.4808,11.43 292.4258,11.457 292.4258,11.457 C291.4208,12.182 290.3048,12.801 289.1058,13.311 C287.6268,13.877 286.0648,14.307 284.3908,14.603 L284.1678,14.092 C285.4508,13.769 286.6498,13.311 287.7668,12.774 C288.8548,12.182 289.8868,11.511 290.8628,10.73 C291.0308,10.596 291.1698,10.461 291.3098,10.327 C290.4728,9.467 289.8028,8.552 289.3278,7.583 C289.1058,7.153 288.9098,6.642 288.7428,6.05 C288.6028,6.212 288.4918,6.319 288.3798,6.427 C287.7668,7.072 286.8178,7.852 285.5908,8.74 L285.0318,8.417 C286.0368,7.207 286.7898,6.104 287.3198,5.083 C287.9338,3.952 288.5198,2.608 289.0778,1.075 L291.6998,1.909 Z M287.9898,16.082 L289.3848,16.082 C289.5518,15.221 289.6628,14.334 289.7198,13.367 L292.3978,13.743 C292.7878,13.823 292.9838,13.985 292.9838,14.199 C292.9838,14.468 292.6208,14.71 291.8958,14.926 C291.7838,15.356 291.6998,15.732 291.6158,16.082 L295.9398,16.082 L297.1398,14.926 L299.1768,16.459 C299.3448,16.593 299.4278,16.754 299.4278,16.916 C299.4278,17.077 299.0648,17.292 298.3398,17.562 C298.3398,18.475 298.1718,19.497 297.8928,20.681 C297.6418,22.026 297.2798,23.156 296.8048,24.097 C296.5548,24.635 296.1918,25.011 295.6898,25.281 C295.1868,25.495 294.3508,25.657 293.2058,25.764 C293.0668,24.769 292.7598,24.205 292.3138,24.07 L289.9428,23.451 L290.0538,22.805 L293.5408,23.128 C293.9038,23.128 294.2108,23.075 294.4338,22.913 C294.6568,22.805 294.8518,22.591 295.0198,22.268 C295.3548,21.595 295.6338,20.681 295.8568,19.552 C296.0238,18.584 296.1638,17.696 296.2468,16.835 L291.4208,16.835 C291.0308,18.099 290.5278,19.175 289.9428,20.063 C289.2168,21.192 288.1848,22.268 286.9018,23.29 C285.9808,23.962 284.5578,24.823 282.6328,25.845 L282.2148,25.334 C284.1118,24.07 285.4228,23.128 286.1208,22.429 C287.2638,21.3 288.1008,20.036 288.6028,18.584 C288.8268,18.045 289.0498,17.453 289.2168,16.835 L287.9898,16.835 C286.9568,16.835 285.9248,16.916 284.9208,17.023 L284.3908,15.76 C285.5618,15.975 286.7618,16.082 287.9898,16.082 L287.9898,16.082 Z M278.1698,2.635 L282.8558,2.635 L283.9438,1.586 L285.7298,3.227 C285.9808,3.442 286.1208,3.63 286.1208,3.792 C286.1208,4.006 285.9528,4.115 285.6188,4.115 L284.7258,4.115 C283.3858,5.405 282.1308,6.454 280.9308,7.234 C281.6288,7.664 281.9908,8.094 281.9908,8.525 C281.9908,9.386 281.6288,9.789 280.9028,9.789 C280.5678,9.789 280.2898,9.601 280.0378,9.197 C279.2018,8.121 278.0578,7.018 276.6628,5.89 L277.1928,5.486 C278.3648,5.971 279.3128,6.4 280.0948,6.777 C280.9598,5.755 281.7398,4.625 282.4658,3.388 L278.1698,3.388 C277.1648,3.388 276.1328,3.469 275.1288,3.576 L274.5708,2.312 C275.7698,2.528 276.9698,2.635 278.1698,2.635 L278.1698,2.635 Z M277.7508,10.112 L283.9158,10.112 L285.0318,9.036 L286.6788,10.273 C286.9018,10.38 287.0128,10.568 287.0128,10.838 C287.0128,10.999 286.8458,11.134 286.5388,11.188 L285.9248,11.348 C285.2268,12.264 284.3068,13.258 283.1908,14.307 L282.6328,14.092 C283.1908,12.909 283.6088,11.833 283.8888,10.838 L281.4328,10.838 L281.4328,23.128 C281.4328,23.935 280.9868,24.607 280.1498,25.146 C279.4248,25.549 278.7548,25.764 278.1698,25.764 C278.1698,25.065 278.0858,24.581 277.9188,24.366 C277.7228,24.124 276.8298,23.855 275.2398,23.559 L275.2398,23.021 L278.6158,23.237 C279.1178,23.237 279.3688,23.075 279.3688,22.698 L279.3688,15.06 C278.5598,16.431 277.6668,17.588 276.6908,18.53 C275.8538,19.39 275.0168,20.117 274.1518,20.708 L273.8178,20.197 C274.3478,19.741 274.9048,19.067 275.5188,18.18 C276.2998,17.023 276.9968,15.787 277.5838,14.468 C278.0578,13.339 278.5038,12.129 278.8948,10.838 L277.7508,10.838 C276.7188,10.838 275.6858,10.918 274.6818,11.053 L274.1518,9.789 C275.3238,10.004 276.5238,10.112 277.7508,10.112 L277.7508,10.112 Z" id="Fill-45" fill="#264B5B" mask="url(#mask-4)"></path>
                <path d="M324.2585,4.1683 C323.4215,4.3293 322.3055,4.4633 320.8545,4.5723 L320.8545,10.1913 L326.7415,10.1913 L328.3595,8.4173 L330.5355,9.9503 C330.7595,10.1383 330.8705,10.3263 330.8705,10.5143 C330.8705,10.8113 330.7305,10.9463 330.4525,10.9463 L327.0765,10.9463 L327.0765,24.6883 C327.0765,25.0373 326.8815,25.3073 326.4905,25.4953 C326.1005,25.6573 325.7655,25.7643 325.4305,25.7643 C324.9285,25.7643 324.6775,25.4953 324.6775,25.0113 L324.7885,22.0803 L324.7885,10.9463 L320.8545,10.9463 L320.8545,12.8283 C320.8545,16.0283 320.2695,18.6373 319.1535,20.6543 C318.1485,22.4833 316.7535,24.0153 314.9685,25.3343 L314.5225,24.9043 C315.6935,23.8273 316.6425,22.5093 317.3685,20.9503 C318.2325,19.1213 318.6785,16.4313 318.6785,12.8283 L318.6785,4.5173 C318.6785,3.7103 318.6235,3.0653 318.5675,2.5273 L320.8275,3.8713 C321.9425,3.6033 322.8355,3.3343 323.5335,3.0653 C324.7885,2.5543 325.9045,1.8823 326.8535,1.0743 L329.0015,2.5813 C329.1685,2.6893 329.2525,2.8763 329.2525,3.1723 C329.2525,3.3883 329.1685,3.4693 329.0295,3.4693 L327.9415,3.3883 C326.8815,3.7103 325.6535,3.9523 324.2585,4.1683 L324.2585,4.1683 Z M314.7455,14.6033 L314.7455,9.1443 L308.7475,9.1443 L308.7475,12.5053 C308.7475,13.2583 308.7195,13.9573 308.6915,14.6033 L314.7455,14.6033 Z M311.7045,4.2493 C310.9795,4.4103 309.9745,4.5443 308.7475,4.6513 L308.7475,8.4173 L314.5225,8.4173 L315.7215,7.2603 L317.3395,8.4703 C317.6465,8.6593 317.8135,8.8203 317.8135,8.9553 C317.8135,9.1443 317.7025,9.2783 317.5075,9.3583 L316.8105,9.6813 L316.8105,13.5543 L316.9215,15.8663 C316.9215,16.0823 316.7815,16.2703 316.5585,16.3773 C316.3355,16.5403 316.0565,16.6213 315.7215,16.6213 C315.0525,16.6213 314.7455,16.4593 314.7455,16.0823 L314.7455,15.3563 L308.6355,15.3563 C308.4685,17.4273 308.1615,19.1743 307.7155,20.6003 C307.1015,22.4833 306.2365,24.0963 305.1485,25.4413 L304.7295,25.0113 C305.2325,23.8823 305.6505,22.5373 305.9855,20.8963 C306.3755,19.0133 306.5715,16.2163 306.5715,12.5053 L306.5715,4.6253 C306.5715,3.8173 306.5155,3.1463 306.4595,2.6353 L308.6355,3.9263 C309.5845,3.6573 310.3645,3.3883 310.9515,3.1183 C312.0945,2.6073 313.0995,1.9363 313.9925,1.0743 L316.1405,2.5813 C316.3075,2.6893 316.3915,2.8763 316.3915,3.1723 C316.3915,3.3883 316.3075,3.4693 316.1685,3.4693 L315.0805,3.3883 C314.0755,3.7383 312.9595,4.0333 311.7045,4.2493 L311.7045,4.2493 Z" id="Fill-46" fill="#264B5B" mask="url(#mask-4)"></path>
            </g>
        </g>
    </g>
</svg>