<svg xmlns="http://www.w3.org/2000/svg" xmlns:xlink="http://www.w3.org/1999/xlink" width="299" height="52" viewBox="0 0 299 52">
    <defs>
        <path id="a" d="M8.819 10.815V.401H.11v10.414H8.82z"/>
    </defs>
    <g fill="none" fill-rule="evenodd">
        <path fill="#231916" d="M105 10.387c0 .141-.088.212-.26.212h-8.338l.044 22.188c0 .14-.087.213-.262.213h-5.282c-.173 0-.26-.058-.26-.17l.042-22.231h-8.423c-.173 0-.261-.055-.261-.17V5.212c0-.141.088-.212.26-.212h22.522c.145 0 .218.057.218.17v5.217zM129.416 21.797l-3.292-9.289-3.644 9.289h6.936zm10.536 10.857c.119.227.016.34-.307.34h-5.793l-2.285-5.6H120.68l-2.239 5.6h-6.323c-.119.028-.147-.043-.088-.211l10.8-27.656a.302.302 0 0 1 .263-.127h5.577c.176 0 .291.07.35.212l10.932 27.442zM160.783 23.579c-.087-.705-.427-1.278-1.022-1.716a3.72 3.72 0 0 0-1.935-.744 27.992 27.992 0 0 0-4.086-.043v6.321h3.651c1.16-.084 2.066-.404 2.717-.954.652-.55.876-1.505.675-2.864zm-1.52-9.374c.373-.79.33-1.55-.132-2.27-.463-.72-1.29-1.18-2.478-1.378-.435-.057-1.405-.084-2.913-.084v5.514c.986.057 1.884.03 2.695-.086 1.45-.196 2.391-.762 2.828-1.696zM148 5.212c0-.141.103-.212.304-.212h8.738a9.485 9.485 0 0 1 4.61 1.357c1.536.932 2.608 2.148 3.217 3.648.377.907.564 1.839.564 2.8 0 1.95-.708 3.591-2.129 4.921 1.043.848 1.754 1.541 2.13 2.08 1.043 1.384 1.566 2.982 1.566 4.791a10.4 10.4 0 0 1-.304 2.419c-.262 1.245-.958 2.361-2.089 3.35a9.823 9.823 0 0 1-3.52 2.016c-1.333.438-3.783.643-7.347.616h-5.566c-.087 0-.144-.059-.174-.17V5.211zM182 32.788c0 .141-.076.212-.227.212h-5.5c-.182 0-.273-.057-.273-.17V5.212c0-.141.091-.212.274-.212h5.499c.15 0 .227.07.227.212v27.576zM214 10.387c0 .141-.088.212-.26.212h-8.338l.044 22.188c0 .14-.087.213-.262.213h-5.282c-.173 0-.26-.058-.26-.17l.042-22.231h-8.423c-.173 0-.261-.055-.261-.17V5.212c0-.141.088-.212.26-.212h22.522c.145 0 .218.057.218.17v5.217zM228 32.788c0 .141-.076.212-.227.212h-5.5c-.182 0-.273-.057-.273-.17V5.212c0-.141.091-.212.274-.212h5.499c.15 0 .227.07.227.212v27.576zM268 32.788c0 .141-.073.212-.218.212h-5.285c-.175 0-.263-.057-.263-.17V13.484l-8.82 10.48-8.648-10.48v19.261c0 .169-.073.255-.218.255h-5.285c-.175 0-.263-.057-.263-.17V5.212c0-.141.088-.212.263-.212h5.152c.088 0 .204.098.351.296l8.778 10.31L262.54 5h5.242c.145 0 .218.057.218.169v27.62zM278 5.767c0-.172.09-.258.268-.258h19.376c.149.028.224.101.224.216V11c0 .17-.075.257-.224.257h-14.006v5.36h10.38c.149 0 .224.073.224.216v5.233c0 .142-.075.213-.224.213h-10.11v5.919h14.363c.117 0 .178.073.178.215v5.233c0 .143-.076.214-.224.214h-19.957c-.178 0-.267-.057-.267-.17V5.767zM85 51.923c0 .051-.026.077-.076.077h-1.833c-.06 0-.091-.02-.091-.06v-9.863c0-.05.03-.077.091-.077h1.833c.05 0 .076.027.076.077v9.846zM98.882 51.998h-2.088l-5.591-6.877v6.741c.011.071-.004.11-.042.12a.426.426 0 0 1-.107.016h-1.97c-.056.01-.084-.03-.084-.12v-9.801c0-.05.028-.077.083-.077h2.12l5.59 6.757v-6.665c-.009-.06.024-.092.101-.092h1.953c.112 0 .161.032.152.092v9.814c0 .072-.04.102-.117.092M117 43.925c0 .05-.031.075-.093.075h-2.897l.013 7.923c0 .051-.029.077-.09.077h-1.838c-.06 0-.09-.02-.09-.06l.015-7.94h-2.93c-.06 0-.09-.02-.09-.06v-1.863c0-.05.03-.077.09-.077h7.833c.05 0 .077.022.077.061v1.864zM130 51.923c0 .051-.027.077-.08.077h-1.954c-.053 0-.08-.02-.08-.06V47.848h-4.772v4.06c0 .061-.027.092-.08.092h-1.938c-.063 0-.096-.02-.096-.06v-9.863c0-.05.033-.077.096-.077h1.938c.053 0 .08.022.08.061v3.788h4.772v-3.772c0-.05.033-.077.096-.077h1.938c.053 0 .08.022.08.061v9.862zM133 41.092c0-.06.031-.092.092-.092h6.632c.05.01.076.037.076.076v1.862c0 .06-.026.09-.076.09h-4.794v1.892h3.554c.052 0 .076.025.076.075v1.846c0 .049-.024.074-.076.074h-3.462v2.088h4.917c.042 0 .061.025.061.076v1.845c0 .05-.024.076-.076.076h-6.832c-.06 0-.092-.02-.092-.06v-9.848zM155.71 48.635a.864.864 0 0 0-.376-.612 1.407 1.407 0 0 0-.714-.267c-.48-.04-.983-.045-1.506-.014V50h1.346c.427-.03.76-.144 1-.34.24-.199.324-.54.25-1.024zm-.562-3.347a.762.762 0 0 0-.047-.81c-.172-.258-.476-.422-.913-.493-.16-.02-.518-.03-1.074-.03v1.969c.363.02.694.01.994-.03.534-.07.88-.273 1.04-.606zM151 42.077c0-.051.038-.077.113-.077h3.218a3.58 3.58 0 0 1 1.698.485c.565.333.961.767 1.186 1.303.138.323.207.656.207 1a2.28 2.28 0 0 1-.784 1.757c.385.302.646.55.784.741.385.495.578 1.067.578 1.713 0 .272-.038.561-.113.864-.096.444-.352.844-.77 1.197a3.667 3.667 0 0 1-1.295.72c-.492.155-1.395.228-2.708.22h-2.05c-.031 0-.053-.021-.064-.062v-9.861zM170.823 46.476c0-.919-.327-1.703-.977-2.355a3.215 3.215 0 0 0-2.353-.976c-.93 0-1.716.327-2.363.976a3.224 3.224 0 0 0-.97 2.355c0 .93.324 1.718.97 2.37.647.652 1.433.975 2.363.975a3.2 3.2 0 0 0 2.353-.976c.65-.65.977-1.44.977-2.37m2.177.017c0 1.526-.536 2.826-1.609 3.9-1.073 1.07-2.368 1.608-3.882 1.608-1.527 0-2.827-.538-3.9-1.609-1.072-1.073-1.609-2.373-1.609-3.9 0-1.515.537-2.809 1.609-3.882 1.073-1.073 2.373-1.609 3.9-1.609 1.514 0 2.81.536 3.882 1.609 1.073 1.073 1.609 2.367 1.609 3.883M183.823 46.476c0-.919-.327-1.703-.977-2.355a3.215 3.215 0 0 0-2.353-.976c-.93 0-1.716.327-2.363.976a3.224 3.224 0 0 0-.97 2.355c0 .93.324 1.718.97 2.37.647.652 1.433.975 2.363.975a3.2 3.2 0 0 0 2.353-.976c.65-.65.977-1.44.977-2.37m2.177.017c0 1.526-.536 2.826-1.609 3.9-1.073 1.07-2.368 1.608-3.882 1.608-1.527 0-2.827-.538-3.9-1.609-1.072-1.073-1.609-2.373-1.609-3.9 0-1.515.537-2.809 1.609-3.882 1.073-1.073 2.373-1.609 3.9-1.609 1.514 0 2.81.536 3.882 1.609 1.073 1.073 1.609 2.367 1.609 3.883M192.16 51.923c0 .051-.028.077-.082.077h-1.98c-.065 0-.098-.02-.098-.06v-9.863c0-.05.033-.077.098-.077h1.98c.054 0 .081.027.081.077v3.817l4.137-3.802h2.946c.011 0 .023.015.034.044 0 .043-.006.066-.017.077-1.09 1.039-2.7 2.55-4.825 4.53v.12a561.776 561.776 0 0 1 5.545 5.016c.054.08.005.121-.147.121h-2.912l-4.55-4.06c-.053-.072-.096-.106-.129-.106s-.06.024-.082.075v4.014zM224.983 42.112l-3.62 9.783a.212.212 0 0 1-.083.105h-2.182c-.053 0-.086-.034-.097-.105l-1.89-6.058-2.054 6.042c-.011.082-.048.121-.116.121h-2.165c-.022 0-.064-.05-.13-.15l-3.638-9.754c-.022-.06 0-.09.064-.09h2.314l2.424 6.466 2.006-6.255c0-.019.016-.029.048-.029h2.214c.022 0 .039.01.05.029l2.118 6.194 2.264-6.315c.01-.08.05-.11.113-.09h2.246c.12-.01.156.026.114.106M228 41.092c0-.06.031-.092.092-.092h6.632c.05.01.076.037.076.076v1.862c0 .06-.026.09-.076.09h-4.794v1.892h3.554c.052 0 .076.025.076.075v1.846c0 .049-.024.074-.076.074h-3.462v2.088h4.917c.042 0 .061.025.061.076v1.845c0 .05-.024.076-.076.076h-6.832c-.06 0-.092-.02-.092-.06v-9.848zM254 43.925c0 .05-.031.075-.093.075h-2.897l.013 7.923c0 .051-.029.077-.09.077h-1.838c-.06 0-.09-.02-.09-.06l.015-7.94h-2.93c-.06 0-.09-.02-.09-.06v-1.863c0-.05.03-.077.09-.077h7.833c.05 0 .077.022.077.061v1.864zM258.987 43.982v2.026c.482.01.782.005.903-.013.35-.041.618-.162.798-.364.152-.151.227-.358.227-.621a.912.912 0 0 0-.075-.378c-.122-.312-.362-.509-.724-.589-.17-.04-.507-.061-1.01-.061h-.119zm0 7.942c0 .05-.025.076-.075.076h-1.822c-.06 0-.09-.02-.09-.06v-9.848c0-.051.034-.077.104-.077L259.59 42c.712 0 1.277.105 1.693.31.417.208.8.558 1.153 1.052.422.595.6 1.26.541 1.997-.08.989-.541 1.648-1.386 1.982.263.362.845 1.11 1.748 2.239.732.927 1.284 1.688 1.656 2.284.019.06-.015.105-.106.136h-2.243l-2.996-3.995h-.603c-.04-.01-.06.01-.06.062v3.857zM276.984 47.866c-.02.833-.307 1.616-.86 2.35-.552.734-1.241 1.243-2.062 1.53-.51.17-1.033.254-1.571.254-1.066 0-1.995-.312-2.786-.937-1.106-.881-1.676-1.863-1.705-2.945v-6.037c0-.058.024-.085.076-.075h1.826c.07-.019.108.012.108.09v6.022c.03.408.22.798.57 1.174.35.379.74.623 1.166.73.252.06.508.09.76.09.712 0 1.31-.234 1.798-.7.518-.506.774-1.204.763-2.097l-.015-5.234c0-.068.03-.094.091-.075h1.72c.09-.019.137.012.137.09l-.016 2.468v3.302zM286.59 50.182c-.806 1.292-1.956 1.896-3.448 1.81-1.265-.074-2.22-.63-2.861-1.666-.199-.331-.291-.588-.28-.77.404-.236 1.009-.586 1.817-1.058.065.205.206.488.423.85.361.408.763.61 1.212.61.358 0 .68-.137.962-.41.284-.273.427-.584.427-.936 0-.16-.04-.315-.115-.466-.219-.396-.605-.704-1.16-.929l-1.44-.545a3.592 3.592 0 0 1-1.422-1.225c-.36-.529-.522-1.092-.489-1.69.02-.598.232-1.152.636-1.66.402-.505.894-.834 1.472-.985.304-.074.61-.112.914-.112.61 0 1.177.142 1.7.425.525.282.933.692 1.228 1.225.022.01.016.054-.015.13-.48.318-1.042.656-1.686 1.008-.36-.577-.719-.865-1.08-.865-.358-.01-.633.072-.825.248a.854.854 0 0 0-.286.65c0 .298.115.554.343.77.297.19.742.388 1.342.592.664.235 1.118.415 1.358.543.489.257.86.595 1.11 1.011a3.53 3.53 0 0 1 .573 1.938c0 .568-.137 1.068-.41 1.507"/>
        <g transform="translate(290 41)">
            <mask id="b" fill="#fff">
                <use xlink:href="#a"/>
            </mask>
            <path fill="#231916" d="M8.82 2.407c0 .051-.035.078-.102.078H5.564l.015 8.25c0 .053-.032.08-.1.08H3.48c-.065 0-.097-.021-.097-.062l.015-8.268H.208c-.065 0-.097-.022-.097-.062V.48c0-.051.032-.08.098-.08h8.526c.054 0 .084.024.084.064v1.942z" mask="url(#b)"/>
        </g>
        <path fill="#231916" d="M17.808 11.869c-1.324 0-2.397-1.047-2.397-2.339s1.073-2.339 2.397-2.339c1.324 0 2.397 1.047 2.397 2.34 0 1.291-1.073 2.338-2.397 2.338M12.418 1.35A9.121 9.121 0 0 0 8.34 5.367c-2.005 3.953-1.62 7.885.217 10.875h.002l8.43 14.19c.45.757 1.57.757 2.02 0l8.449-14.224h.004A10.482 10.482 0 0 0 29 10.732c0-7.676-8.26-13.47-16.583-9.382"/>
        <path fill="#231916" d="M61.827 41.136c-2.442-.679-5.417-1.246-8.692-1.246-1.518 0-3.1.12-4.745.41-4.454.78-7.865 2.525-10.282 4.121l-.59-23.135a3.262 3.262 0 0 1 .894-2.351c1.296-1.349 3.37-3.033 6.325-3.713 3.33-.768 6.304.124 8.081.857.267.11.483.345.583.619l9.565 23.508c.288.64-.347 1.15-1.139.93m8.098 5.537l-14.353-31.85a1.716 1.716 0 0 0-.803-.892c-1.747-.874-5.918-2.72-10.719-1.558-5.358 1.298-8.347 5.445-9.05 6.434a17.883 17.883 0 0 0-3.772-3.875c-.263.824-.608 1.621-1.026 2.385.524.428 1.004.859 1.389 1.263.597.629.913 1.49.892 2.384l-.59 23.457c-2.417-1.619-5.828-3.388-10.282-4.178a26.977 26.977 0 0 0-4.747-.416c-3.273 0-6.248.574-8.692 1.263-.792.224-1.427-.293-1.14-.942l4.824-12.019-1.947-3.278L.076 46.673c-.324.634.442 1.096 1.228.744 3.528-1.577 10.329-4.121 18.22-2.973 7.955 1.156 12.768 5.35 14.706 7.266.195.194.482.29.77.29.288 0 .576-.096.77-.29 1.939-1.915 6.752-6.11 14.706-7.266 7.892-1.148 14.693 1.396 18.22 2.973.787.352 1.55-.11 1.229-.744"/>
    </g>
</svg>
