<svg width="74" height="30" viewBox="0 0 74 30" fill="none" xmlns="http://www.w3.org/2000/svg">
<path d="M1.30606 22.3839C0.58811 22.3839 0.229134 22.0279 0.229134 21.3158C0.229134 21.0128 0.297874 20.7704 0.435354 20.5886L6.91984 12.0894H1.07693C0.358976 12.0894 0 11.7334 0 11.0213C0 10.3093 0.358976 9.95323 1.07693 9.95323H8.89039C9.60834 9.95323 9.96732 10.3093 9.96732 11.0213C9.96732 11.3243 9.89858 11.5667 9.7611 11.7485L3.29953 20.2478H9.11952C9.83748 20.2478 10.1965 20.6038 10.1965 21.3158C10.1965 22.0279 9.83748 22.3839 9.11952 22.3839H1.30606Z" fill="#23201E"/>
<path d="M26.0305 22.3839C25.6944 22.3839 25.4118 22.2779 25.1827 22.0658C24.9688 21.8385 24.8619 21.5582 24.8619 21.2249V11.1122C24.8619 10.7638 24.9688 10.4835 25.1827 10.2714C25.4118 10.0593 25.6944 9.95323 26.0305 9.95323C26.3818 9.95323 26.6644 10.0593 26.8783 10.2714C27.0921 10.4835 27.1991 10.7638 27.1991 11.1122V21.2249C27.1991 21.5582 27.0921 21.8385 26.8783 22.0658C26.6644 22.2779 26.3818 22.3839 26.0305 22.3839Z" fill="#23201E"/>
<path d="M44.4015 22.3839C44.0654 22.3839 43.7828 22.2779 43.5537 22.0658C43.3398 21.8385 43.2329 21.5582 43.2329 21.2249V11.1122C43.2329 10.7638 43.3398 10.4835 43.5537 10.2714C43.7828 10.0593 44.0654 9.95323 44.4015 9.95323C44.7528 9.95323 45.0354 10.0593 45.2493 10.2714C45.4631 10.4835 45.57 10.7638 45.57 11.1122V21.2249C45.57 21.5582 45.4631 21.8385 45.2493 22.0658C45.0354 22.2779 44.7528 22.3839 44.4015 22.3839Z" fill="#23201E"/>
<path d="M62.5433 27.7016C62.2072 27.7016 61.9246 27.588 61.6955 27.3607C61.4817 27.1486 61.3747 26.8759 61.3747 26.5426V16.1799C61.39 14.9831 61.6726 13.9074 62.2225 12.953C62.7724 11.9985 63.5209 11.2486 64.468 10.7032C65.4151 10.1426 66.4844 9.86234 67.6759 9.86234C68.8827 9.86234 69.9596 10.1426 70.9067 10.7032C71.8538 11.2486 72.6023 11.9985 73.1522 12.953C73.7174 13.9074 74 14.9831 74 16.1799C74 17.3768 73.7403 18.4525 73.2209 19.4069C72.7168 20.3462 72.0218 21.0962 71.1358 21.6567C70.2498 22.2021 69.2493 22.4748 68.1342 22.4748C67.2329 22.4748 66.4004 22.293 65.6366 21.9294C64.8881 21.5507 64.2465 21.0431 63.7119 20.4068V26.5426C63.7119 26.8759 63.605 27.1486 63.3911 27.3607C63.1772 27.588 62.8947 27.7016 62.5433 27.7016ZM67.6759 20.4296C68.455 20.4296 69.15 20.2478 69.761 19.8841C70.372 19.5054 70.8532 18.9979 71.2046 18.3616C71.5712 17.7101 71.7545 16.9829 71.7545 16.1799C71.7545 15.3618 71.5712 14.6346 71.2046 13.9983C70.8532 13.3469 70.372 12.8393 69.761 12.4757C69.15 12.097 68.455 11.9076 67.6759 11.9076C66.9121 11.9076 66.2171 12.097 65.5908 12.4757C64.9798 12.8393 64.4986 13.3469 64.1472 13.9983C63.7959 14.6346 63.6202 15.3618 63.6202 16.1799C63.6202 16.9829 63.7959 17.7101 64.1472 18.3616C64.4986 18.9979 64.9798 19.5054 65.5908 19.8841C66.2171 20.2478 66.9121 20.4296 67.6759 20.4296Z" fill="#23201E"/>
<path id="ziip_2" d="M25.0282 29.1018C25.4161 29.4898 25.8768 29.6837 26.4102 29.6837C26.9679 29.6837 27.4407 29.4898 27.8287 29.1018C28.2166 28.7139 28.4106 28.2411 28.4106 27.6834C28.4106 27.0773 28.2045 26.6044 27.7923 26.265C27.4043 25.9013 26.9558 25.7195 26.4466 25.7195C25.9132 25.7195 25.4404 25.9013 25.0282 26.265C24.6403 26.6044 24.4463 27.0773 24.4463 27.6834C24.4463 28.2411 24.6403 28.7139 25.0282 29.1018Z" fill="#23201E"/>
<rect id="Rectangle 1053" x="41.3862" y="3.2442" width="4.5879" height="4.5879" transform="rotate(-45 41.3862 3.2442)" fill="#B4D68A"/>
</svg>
